<svg width="100" height="41" viewBox="0 0 100 41" fill="none" xmlns="http://www.w3.org/2000/svg">
<path d="M12.5181 31.835C11.6206 31.835 10.7303 31.7481 9.84728 31.5744C8.97871 31.4152 8.26214 31.1981 7.69757 30.923V28.5561C8.42138 28.9036 9.18138 29.1641 9.97757 29.3379C10.7738 29.5116 11.5555 29.5984 12.3227 29.5984C13.2926 29.5984 14.0309 29.4175 14.5376 29.0556C15.0442 28.6937 15.2976 28.1942 15.2976 27.5573C15.2976 27.1085 15.1818 26.7394 14.9501 26.4499C14.7185 26.1459 14.3783 25.8853 13.9296 25.6681C13.4808 25.4365 12.7932 25.1398 11.8667 24.7779C10.448 24.1988 9.42023 23.5546 8.78328 22.8453C8.14633 22.136 7.82785 21.2529 7.82785 20.1961C7.82785 19.371 8.05223 18.64 8.50099 18.003C8.94976 17.3661 9.57947 16.8739 10.3901 16.5264C11.2008 16.179 12.1345 16.0053 13.1913 16.0053C14.0599 16.0053 14.8271 16.0777 15.493 16.2224C16.1734 16.3527 16.8393 16.5626 17.4907 16.8521V19.1539C16.2313 18.5459 14.9574 18.2419 13.669 18.2419C12.7425 18.2419 12.0259 18.4156 11.5193 18.763C11.0126 19.096 10.7593 19.5737 10.7593 20.1961C10.7593 20.6449 10.8751 21.0141 11.1067 21.3036C11.3383 21.5786 11.6423 21.8175 12.0187 22.0201C12.4096 22.2083 13.1044 22.5123 14.1033 22.9321C15.1166 23.352 15.9128 23.7645 16.4919 24.1699C17.0854 24.5752 17.5269 25.0529 17.8164 25.603C18.1204 26.1386 18.2724 26.7973 18.2724 27.579C18.2724 28.9253 17.7875 29.9748 16.8176 30.7276C15.8477 31.4659 14.4145 31.835 12.5181 31.835ZM23.8796 31.835C22.736 31.835 21.8674 31.5165 21.2739 30.8796C20.6804 30.2426 20.3836 29.3451 20.3836 28.187V23.171H18.8202V21.0864H20.3836V17.9596H23.1196V21.0864H25.6168V23.171H23.1196V27.8396C23.1196 28.5055 23.2427 28.9832 23.4888 29.2727C23.7349 29.5478 24.1836 29.6853 24.8351 29.6853C25.2838 29.6853 25.7253 29.584 26.1596 29.3813V31.4659C25.5372 31.712 24.7772 31.835 23.8796 31.835ZM31.6109 31.835C30.366 31.835 29.3454 31.5093 28.5492 30.8579C27.753 30.192 27.3549 29.3017 27.3549 28.187C27.3549 27.0289 27.7313 26.1241 28.4841 25.4727C29.2368 24.8213 30.2936 24.4956 31.6544 24.4956C32.9717 24.4956 34.1081 24.7634 35.0635 25.299V25.0167C35.0635 24.2784 34.8319 23.7428 34.3686 23.4099C33.9199 23.0769 33.1888 22.9104 32.1755 22.9104C31.5386 22.9104 30.9088 22.9756 30.2864 23.1059C29.6639 23.2217 29.1138 23.3881 28.6361 23.6053V21.4556C29.0704 21.2529 29.6494 21.0864 30.3732 20.9561C31.1115 20.8259 31.8208 20.7607 32.5012 20.7607C34.3107 20.7607 35.6498 21.1516 36.5184 21.9333C37.3869 22.7005 37.8212 23.7718 37.8212 25.147V31.5093H35.2372V30.4887C34.7885 30.923 34.2746 31.256 33.6955 31.4876C33.1309 31.7192 32.4361 31.835 31.6109 31.835ZM32.2841 29.8373C32.8921 29.8373 33.4422 29.7215 33.9344 29.4899C34.4266 29.2438 34.8029 28.9108 35.0635 28.491V27.3401C34.2673 26.7756 33.3553 26.4933 32.3275 26.4933C30.8654 26.4933 30.1344 27.0579 30.1344 28.187C30.1344 28.7371 30.3153 29.1497 30.6772 29.4247C31.0536 29.6998 31.5892 29.8373 32.2841 29.8373ZM41.8433 35.8087C41.4669 35.8087 41.0688 35.7798 40.649 35.7219C40.2437 35.6784 39.9252 35.6133 39.6936 35.5264V33.4419C40.0555 33.5866 40.5042 33.659 41.0399 33.659C41.5899 33.659 42.0025 33.536 42.2776 33.2899C42.5526 33.0438 42.7915 32.6529 42.9941 32.1173L43.4067 31.0316L38.9119 21.0864H41.6696L44.8833 28.6864L47.9016 21.0864H50.6376L46.0776 32.443C45.6143 33.5866 45.0498 34.4335 44.3839 34.9836C43.7324 35.5337 42.8856 35.8087 41.8433 35.8087ZM51.3908 16.331H53.9965L61.0971 26.9059V16.331H63.8548V31.5093H61.2491L54.1485 20.9127V31.5093H51.3908V16.331ZM72.3307 31.835C70.3908 31.835 68.8564 31.3501 67.7272 30.3801C66.5981 29.4102 66.0335 28.0567 66.0335 26.3196C66.0335 24.6114 66.5329 23.2579 67.5318 22.259C68.5307 21.2601 69.9566 20.7607 71.8095 20.7607C73.0255 20.7607 74.0606 20.9923 74.9147 21.4556C75.7832 21.9188 76.4347 22.5558 76.8689 23.3664C77.3032 24.1626 77.5204 25.0746 77.5204 26.1024V27.3619H68.6392C68.8274 28.9108 70.1737 29.6853 72.6781 29.6853C73.344 29.6853 74.0244 29.6274 74.7192 29.5116C75.4141 29.3958 76.0221 29.2365 76.5432 29.0339V31.1401C76.051 31.3428 75.4141 31.5093 74.6324 31.6396C73.8651 31.7699 73.0979 31.835 72.3307 31.835ZM74.9364 25.4944C74.9074 24.6693 74.6107 24.0323 74.0461 23.5836C73.496 23.1348 72.736 22.9104 71.7661 22.9104C70.8107 22.9104 70.0579 23.1421 69.5078 23.6053C68.9577 24.0685 68.6682 24.6982 68.6392 25.4944H74.9364ZM83.7605 31.835C83.0077 31.835 82.2043 31.7481 81.3502 31.5744C80.4961 31.4007 79.8302 31.1619 79.3525 30.8579V28.5344C79.9171 28.8819 80.5902 29.1641 81.3719 29.3813C82.1537 29.584 82.8919 29.6853 83.5868 29.6853C84.2817 29.6853 84.7883 29.6274 85.1068 29.5116C85.4253 29.3813 85.5845 29.1497 85.5845 28.8167C85.5845 28.5561 85.4977 28.3462 85.3239 28.187C85.1647 28.0133 84.8969 27.8613 84.5205 27.731C84.1586 27.5862 83.594 27.4125 82.8268 27.2099C81.9582 26.9638 81.2706 26.7104 80.7639 26.4499C80.2717 26.1893 79.8954 25.8636 79.6348 25.4727C79.3887 25.0674 79.2657 24.5462 79.2657 23.9093C79.2657 22.867 79.6782 22.0853 80.5034 21.5641C81.3285 21.0285 82.4432 20.7607 83.8474 20.7607C84.5712 20.7607 85.2877 20.8331 85.9971 20.9779C86.7209 21.1081 87.2855 21.2963 87.6908 21.5424V23.779C87.2565 23.5184 86.7281 23.3085 86.1057 23.1493C85.4832 22.9901 84.8462 22.9104 84.1948 22.9104C83.4855 22.9104 82.9498 22.9828 82.5879 23.1276C82.226 23.2579 82.0451 23.5184 82.0451 23.9093C82.0451 24.1699 82.1392 24.3798 82.3274 24.539C82.53 24.6838 82.7906 24.8141 83.1091 24.9299C83.4276 25.0312 84.0066 25.1904 84.8462 25.4076C85.7437 25.6537 86.4458 25.9215 86.9525 26.211C87.4592 26.5005 87.8211 26.848 88.0382 27.2533C88.2554 27.6586 88.3639 28.1653 88.3639 28.7733C88.3639 29.6998 87.9658 30.4453 87.1697 31.0099C86.3879 31.56 85.2516 31.835 83.7605 31.835ZM94.4086 31.835C93.265 31.835 92.3965 31.5165 91.8029 30.8796C91.2094 30.2426 90.9126 29.3451 90.9126 28.187V23.171H89.3492V21.0864H90.9126V17.9596H93.6486V21.0864H96.1458V23.171H93.6486V27.8396C93.6486 28.5055 93.7717 28.9832 94.0178 29.2727C94.2639 29.5478 94.7126 29.6853 95.3641 29.6853C95.8128 29.6853 96.2544 29.584 96.6886 29.3813V31.4659C96.0662 31.712 95.3062 31.835 94.4086 31.835Z" fill="#073937"/>
<path d="M24.5574 2L2.47285 17.1027C2.17695 17.305 2 17.6404 2 17.9989V37.2756C2 37.8752 2.48609 38.3613 3.08571 38.3613H98" stroke="#E6B022" stroke-width="2.17143" stroke-linecap="round" stroke-linejoin="round"/>
</svg>
