<svg width="90" height="20" viewBox="0 0 90 20" fill="none" xmlns="http://www.w3.org/2000/svg">
<path d="M5.51814 15.835C4.62061 15.835 3.73033 15.7481 2.84728 15.5744C1.97871 15.4152 1.26214 15.1981 0.697566 14.923V12.5561C1.42138 12.9036 2.18138 13.1641 2.97757 13.3379C3.77376 13.5116 4.55547 13.5984 5.32271 13.5984C6.29261 13.5984 7.0309 13.4175 7.53757 13.0556C8.04423 12.6937 8.29757 12.1942 8.29757 11.5573C8.29757 11.1085 8.18176 10.7394 7.95014 10.4499C7.71852 10.1459 7.37833 9.88529 6.92957 9.66815C6.4808 9.43653 5.79319 9.13977 4.86671 8.77786C3.44804 8.19882 2.42023 7.55463 1.78328 6.84529C1.14633 6.13596 0.827852 5.25291 0.827852 4.19615C0.827852 3.37101 1.05223 2.63996 1.50099 2.00301C1.94976 1.36605 2.57947 0.873863 3.39014 0.526433C4.2008 0.179005 5.13452 0.00529082 6.19128 0.00529082C7.05985 0.00529082 7.82709 0.0776717 8.493 0.222433C9.17338 0.352719 9.83928 0.562624 10.4907 0.852149V3.15386C9.23128 2.54586 7.95738 2.24186 6.669 2.24186C5.74252 2.24186 5.02595 2.41558 4.51928 2.76301C4.01261 3.09596 3.75928 3.57367 3.75928 4.19615C3.75928 4.64491 3.87509 5.01405 4.10671 5.30358C4.33833 5.57862 4.64233 5.81748 5.01871 6.02015C5.40957 6.20834 6.10442 6.51234 7.10328 6.93215C8.11661 7.35196 8.91281 7.76453 9.49185 8.16986C10.0854 8.5752 10.5269 9.05291 10.8164 9.60301C11.1204 10.1386 11.2724 10.7973 11.2724 11.579C11.2724 12.9253 10.7875 13.9748 9.81757 14.7276C8.84766 15.4659 7.41452 15.835 5.51814 15.835ZM16.8796 15.835C15.736 15.835 14.8674 15.5165 14.2739 14.8796C13.6804 14.2426 13.3836 13.3451 13.3836 12.187V7.17101H11.8202V5.08643H13.3836V1.95958H16.1196V5.08643H18.6168V7.17101H16.1196V11.8396C16.1196 12.5055 16.2427 12.9832 16.4888 13.2727C16.7349 13.5478 17.1836 13.6853 17.8351 13.6853C18.2838 13.6853 18.7253 13.584 19.1596 13.3813V15.4659C18.5372 15.712 17.7772 15.835 16.8796 15.835ZM24.6109 15.835C23.366 15.835 22.3454 15.5093 21.5492 14.8579C20.753 14.192 20.3549 13.3017 20.3549 12.187C20.3549 11.0289 20.7313 10.1241 21.4841 9.47272C22.2368 8.82129 23.2936 8.49558 24.6544 8.49558C25.9717 8.49558 27.1081 8.76339 28.0635 9.29901V9.01672C28.0635 8.27843 27.8319 7.74282 27.3686 7.40986C26.9199 7.07691 26.1888 6.91043 25.1755 6.91043C24.5386 6.91043 23.9088 6.97558 23.2864 7.10586C22.6639 7.22167 22.1138 7.38815 21.6361 7.60529V5.45558C22.0704 5.25291 22.6494 5.08643 23.3732 4.95615C24.1115 4.82586 24.8208 4.76072 25.5012 4.76072C27.3107 4.76072 28.6498 5.15158 29.5184 5.93329C30.3869 6.70053 30.8212 7.77177 30.8212 9.14701V15.5093H28.2372V14.4887C27.7885 14.923 27.2746 15.256 26.6955 15.4876C26.1309 15.7192 25.4361 15.835 24.6109 15.835ZM25.2841 13.8373C25.8921 13.8373 26.4422 13.7215 26.9344 13.4899C27.4266 13.2438 27.8029 12.9108 28.0635 12.491V11.3401C27.2673 10.7756 26.3553 10.4933 25.3275 10.4933C23.8654 10.4933 23.1344 11.0579 23.1344 12.187C23.1344 12.7371 23.3153 13.1497 23.6772 13.4247C24.0536 13.6998 24.5892 13.8373 25.2841 13.8373ZM34.8433 19.8087C34.4669 19.8087 34.0688 19.7798 33.649 19.7219C33.2437 19.6784 32.9252 19.6133 32.6936 19.5264V17.4419C33.0555 17.5866 33.5042 17.659 34.0399 17.659C34.5899 17.659 35.0025 17.536 35.2776 17.2899C35.5526 17.0438 35.7915 16.6529 35.9941 16.1173L36.4067 15.0316L31.9119 5.08643H34.6696L37.8833 12.6864L40.9016 5.08643H43.6376L39.0776 16.443C38.6143 17.5866 38.0498 18.4335 37.3839 18.9836C36.7324 19.5337 35.8856 19.8087 34.8433 19.8087ZM44.3908 0.331005H46.9965L54.0971 10.9059V0.331005H56.8548V15.5093H54.2491L47.1485 4.91272V15.5093H44.3908V0.331005ZM65.3307 15.835C63.3908 15.835 61.8564 15.3501 60.7272 14.3801C59.5981 13.4102 59.0335 12.0567 59.0335 10.3196C59.0335 8.61139 59.5329 7.25786 60.5318 6.25901C61.5307 5.26015 62.9566 4.76072 64.8095 4.76072C66.0255 4.76072 67.0606 4.99234 67.9147 5.45558C68.7832 5.91882 69.4347 6.55577 69.8689 7.36643C70.3032 8.16263 70.5204 9.07463 70.5204 10.1024V11.3619H61.6392C61.8274 12.9108 63.1737 13.6853 65.6781 13.6853C66.344 13.6853 67.0244 13.6274 67.7192 13.5116C68.4141 13.3958 69.0221 13.2365 69.5432 13.0339V15.1401C69.051 15.3428 68.4141 15.5093 67.6324 15.6396C66.8651 15.7699 66.0979 15.835 65.3307 15.835ZM67.9364 9.49443C67.9074 8.66929 67.6107 8.03234 67.0461 7.58358C66.496 7.13482 65.736 6.91043 64.7661 6.91043C63.8107 6.91043 63.0579 7.14205 62.5078 7.60529C61.9577 8.06853 61.6682 8.69824 61.6392 9.49443H67.9364ZM76.7605 15.835C76.0077 15.835 75.2043 15.7481 74.3502 15.5744C73.4961 15.4007 72.8302 15.1619 72.3525 14.8579V12.5344C72.9171 12.8819 73.5902 13.1641 74.3719 13.3813C75.1537 13.584 75.8919 13.6853 76.5868 13.6853C77.2817 13.6853 77.7883 13.6274 78.1068 13.5116C78.4253 13.3813 78.5845 13.1497 78.5845 12.8167C78.5845 12.5561 78.4977 12.3462 78.3239 12.187C78.1647 12.0133 77.8969 11.8613 77.5205 11.731C77.1586 11.5862 76.594 11.4125 75.8268 11.2099C74.9582 10.9638 74.2706 10.7104 73.7639 10.4499C73.2717 10.1893 72.8954 9.86358 72.6348 9.47272C72.3887 9.06739 72.2657 8.54624 72.2657 7.90929C72.2657 6.86701 72.6782 6.08529 73.5034 5.56415C74.3285 5.02853 75.4432 4.76072 76.8474 4.76072C77.5712 4.76072 78.2877 4.8331 78.9971 4.97786C79.7209 5.10815 80.2855 5.29634 80.6908 5.54243V7.77901C80.2565 7.51843 79.7281 7.30853 79.1057 7.14929C78.4832 6.99005 77.8462 6.91043 77.1948 6.91043C76.4855 6.91043 75.9498 6.98282 75.5879 7.12758C75.226 7.25786 75.0451 7.51843 75.0451 7.90929C75.0451 8.16986 75.1392 8.37977 75.3274 8.53901C75.53 8.68377 75.7906 8.81405 76.1091 8.92986C76.4276 9.0312 77.0066 9.19043 77.8462 9.40758C78.7437 9.65367 79.4458 9.92148 79.9525 10.211C80.4592 10.5005 80.8211 10.848 81.0382 11.2533C81.2554 11.6586 81.3639 12.1653 81.3639 12.7733C81.3639 13.6998 80.9658 14.4453 80.1697 15.0099C79.3879 15.56 78.2516 15.835 76.7605 15.835ZM87.4086 15.835C86.265 15.835 85.3965 15.5165 84.8029 14.8796C84.2094 14.2426 83.9126 13.3451 83.9126 12.187V7.17101H82.3492V5.08643H83.9126V1.95958H86.6486V5.08643H89.1458V7.17101H86.6486V11.8396C86.6486 12.5055 86.7717 12.9832 87.0178 13.2727C87.2639 13.5478 87.7126 13.6853 88.3641 13.6853C88.8128 13.6853 89.2544 13.584 89.6886 13.3813V15.4659C89.0662 15.712 88.3062 15.835 87.4086 15.835Z" fill="#073937"/>
</svg>
